<?xml version="1.0" encoding="utf-8"?>
<!-- Generator: Adobe Illustrator 16.0.0, SVG Export Plug-In . SVG Version: 6.00 Build 0)  -->
<!DOCTYPE svg PUBLIC "-//W3C//DTD SVG 1.1//EN" "http://www.w3.org/Graphics/SVG/1.1/DTD/svg11.dtd">
<svg version="1.1" id="Layer_1" xmlns="http://www.w3.org/2000/svg" xmlns:xlink="http://www.w3.org/1999/xlink" x="0px" y="0px"
	 width="140px" height="80px" viewBox="0 0 140 80" enable-background="new 0 0 140 80" xml:space="preserve">
<path fill="#ED2924" d="M68.007,14.249c-13.195,0-22.845,9.547-22.845,21.778c0,6.732,2.787,12.667,7.409,16.721h30.869
	c4.622-4.055,7.408-9.989,7.408-16.721C90.848,23.795,81.199,14.249,68.007,14.249z M55.105,31.372
	c0.008,0.1,0.035,0.192,0.052,0.289c-1.144-0.231-1.993-1.11-2.072-2.235c-0.099-1.377,0.985-2.575,2.525-2.684
	c1.125-0.082,2.082,0.502,2.519,1.395C56.284,28.28,54.986,29.716,55.105,31.372z M61.918,22.737
	c-0.099-1.376,0.986-2.574,2.525-2.683c1.126-0.081,2.083,0.502,2.52,1.395c-1.846,0.143-3.144,1.58-3.024,3.234
	c0.008,0.1,0.034,0.193,0.052,0.289C62.847,24.744,61.999,23.863,61.918,22.737z M65.241,35.652c0.007,0.1,0.034,0.192,0.052,0.289
	c-1.144-0.23-1.992-1.11-2.072-2.235c-0.1-1.376,0.985-2.575,2.525-2.683c1.126-0.083,2.082,0.502,2.521,1.394
	C66.419,32.56,65.121,33.999,65.241,35.652z"/>
<path fill="#ED2924" d="M119.572,12.304c-3.473,2.193-14.99,9.905-14.99,9.905s-0.425,0.362-0.848-0.192
	c-4.165-5.252-5.484-9.876-6.408-12.866c-0.392-1.264-1.24-1.715-3.301-0.919c-1.109,0.43-2.396,1.305-3.779,2.897
	c-1.228,1.412-1.652,3.075-1.523,4.683c0.003,0.052,0.008,0.108,0.011,0.16c0.007,0.057,0.008,0.115,0.016,0.172
	c0.071,0.756,0.279,1.589,0.633,2.522c2.011,5.313,7.348,13.186,7.348,13.186c-2.628,8.034-2.475,15.853-1.908,20.896h12.177
	c-1.398-11.036,0.735-18.41,0.979-19.118c0.284-0.822,7.393-4.935,12.144-7.768c4.753-2.833,7.579-4.432,8.408-10.326
	C130.008,5.038,123.045,10.111,119.572,12.304z"/>
<path fill="#B41C18" d="M128.541,11.122c0.427,1.823-0.327,4.928-5.191,8.007c-5.234,3.314-18.035,11.363-18.035,11.363
	c-2.14,7.473-2.511,15.745-1.966,22.256h3.649c-1.398-11.036,0.735-18.41,0.979-19.118c0.284-0.822,7.393-4.935,12.144-7.768
	c4.753-2.833,7.579-4.432,8.408-10.326C128.809,13.546,128.785,12.119,128.541,11.122z"/>
<path fill="#B41C18" d="M81.881,18.49c1.002,2.521,1.559,5.268,1.559,8.145c0,12.198-9.887,22.083-22.083,22.083
	c-5.916,0-11.284-2.33-15.25-6.117c1.181,3.988,3.421,7.478,6.464,10.146h30.869c4.622-4.055,7.408-9.989,7.408-16.721
	C90.848,28.749,87.43,22.42,81.881,18.49z"/>
<g>
	<path fill="#231F20" d="M87.649,64.425c-1.911,0-3.521,1.517-3.521,3.705c0,2.216,1.609,3.708,3.521,3.708
		c1.934,0,3.541-1.492,3.541-3.708C91.19,65.941,89.583,64.425,87.649,64.425z"/>
	<path fill="#231F20" d="M48.527,70.508c0,0.793,0.582,1.538,1.794,1.538c1.584,0,2.704-1.678,2.704-3.121v-0.281h-0.513
		C50.974,68.644,48.527,68.854,48.527,70.508z"/>
	<path fill="#231F20" d="M111.637,57.694H21.249c-5.513,0-9.981,4.598-9.981,10.268c0,5.669,4.469,10.266,9.981,10.266h90.388
		c5.514,0,9.983-4.597,9.983-10.266C121.62,62.292,117.15,57.694,111.637,57.694z M26.183,74.353c-3.263,0-4.941-2.119-4.941-2.119
		l1.398-1.936c0,0,1.515,1.748,3.543,1.748c0.908,0,1.608-0.373,1.608-1.165c0-1.678-6.269-1.654-6.269-5.501
		c0-2.376,2.144-3.471,4.615-3.471c1.607,0,4.171,0.536,4.171,2.471v1.235h-2.61v-0.583c0-0.56-0.839-0.839-1.492-0.839
		c-1.049,0-1.771,0.374-1.771,1.071c0,1.864,6.314,1.49,6.314,5.453C30.75,72.956,28.769,74.353,26.183,74.353z M41.724,74.12
		c0,0-0.374,0.069-0.91,0.069c-1.654,0-4.94-0.489-4.94-4.474V64.54h-1.539v-2.352h1.608v-1.973h2.89v1.973h2.703v2.352h-2.703
		v4.802c0,1.959,1.538,2.239,2.354,2.239c0.327,0,0.537-0.048,0.537-0.048V74.12z M57.383,74.072h-2.657
		c-1.095,0-1.515-0.604-1.515-1.304c0-0.303,0.023-0.514,0.023-0.514h-0.047c0,0-0.909,2.098-3.588,2.098
		c-2.121,0-4.056-1.327-4.056-3.704c0-3.729,5.127-4.033,7.061-4.033h0.373v-0.093c0-1.701-0.676-2.329-2.19-2.329
		c-0.537,0-1.584,0.139-1.584,0.791v0.631h-2.751v-1.26c0-2.215,3.123-2.446,4.358-2.446c3.962,0,5.127,2.074,5.127,4.73v4.428
		c0,0.326,0.187,0.514,0.513,0.514h0.932V74.072z M67.983,74.12c0,0-0.374,0.069-0.909,0.069c-1.655,0-4.941-0.489-4.941-4.474
		V64.54h-1.538v-2.352h1.609v-1.973h2.889v1.973h2.703v2.352h-2.703v4.802c0,1.959,1.539,2.239,2.354,2.239
		c0.325,0,0.536-0.048,0.536-0.048V74.12z M77.513,74.072h-2.82c-1.095,0-1.562-0.466-1.562-1.584v-7.271
		c0-0.35-0.186-0.512-0.513-0.512h-0.933v-2.518h2.82c1.094,0,1.562,0.489,1.562,1.584v7.295c0,0.326,0.187,0.514,0.513,0.514h0.933
		V74.072z M87.649,74.353c-3.612,0-6.502-2.563-6.502-6.223c0-3.635,2.89-6.221,6.502-6.221c3.636,0,6.524,2.586,6.524,6.221
		C94.174,71.79,91.285,74.353,87.649,74.353z M111.812,74.072h-2.818c-1.118,0-1.585-0.466-1.585-1.584v-5.453
		c0-1.444-0.372-2.424-1.864-2.424c-1.585,0-2.773,1.004-3.193,2.424c-0.162,0.489-0.232,1.025-0.232,1.585v5.452h-2.938v-8.854
		c0-0.35-0.185-0.512-0.511-0.512h-0.934v-2.518h2.727c1.048,0,1.562,0.489,1.562,1.329v0.349c0,0.257-0.047,0.514-0.047,0.514
		h0.047c0.512-1.004,1.794-2.471,4.194-2.471c2.634,0,4.147,1.375,4.147,4.521v4.638c0,0.326,0.188,0.514,0.514,0.514h0.932V74.072z
		"/>
</g>
<path fill="#ED2924" d="M47.449,17.52c-1.138-2.585-2.378-3.413-5.533-3.413c-6.102,0-17.22-0.206-24.667-0.154
	c-2.637,0-3.413,1.189-2.172,4.292c1.086,2.689,2.379,4.499,6.154,4.291c2.581-0.132,6.253-0.314,10.122-0.51
	c0.959,10.556,0.387,21.56-2.32,25.273c-3.666,1.1-8.504-2.419-11.804-6.013c-0.954-1.026-1.821-0.976-2.746,0.747
	c-0.499,0.931-0.858,2.354-0.87,4.486c-0.013,2.297,0.976,4.371,2.37,5.911c0.095,0.106,0.201,0.211,0.302,0.316h21.756
	c3.115-2.877,4.667-7.784,4.777-17.839c0.044-4.614-0.302-9.332-0.917-13.44c1.381-0.078,2.665-0.153,3.79-0.225
	C48.019,21.088,48.432,19.743,47.449,17.52z"/>
<path fill="#ED2924" d="M108.178,0c-3.995,0-7.233,3.239-7.233,7.234c0,3.996,3.238,7.235,7.233,7.235
	c3.996,0,7.233-3.239,7.233-7.235C115.411,3.239,112.174,0,108.178,0z M105.607,6.537c-1.033,0-1.87-0.838-1.87-1.872
	c0-1.034,0.837-1.872,1.87-1.872c1.035,0,1.872,0.838,1.872,1.872C107.479,5.699,106.643,6.537,105.607,6.537z"/>
</svg>
