<?xml version="1.0" encoding="utf-8"?>
<!-- Generator: Adobe Illustrator 20.0.0, SVG Export Plug-In . SVG Version: 6.00 Build 0)  -->
<svg version="1.1" id="Layer_1" xmlns="http://www.w3.org/2000/svg" xmlns:xlink="http://www.w3.org/1999/xlink" x="0px" y="0px"
	 viewBox="0 0 140 80" style="enable-background:new 0 0 140 80;" xml:space="preserve">
<style type="text/css">
	.st0{fill:#003071;}
	.st1{fill:#EC1C24;}
</style>
<g>
	<g>
		<path class="st0" d="M106.3,42.1v1.4c12.7,0.6,24.2,1.8,33.4,3.3C130.5,44.6,119,42.9,106.3,42.1z"/>
		<path class="st0" d="M34.5,42C21.6,42.9,10,44.5,0.6,46.8c9.4-1.6,21-2.7,33.9-3.3V42z"/>
		<path class="st0" d="M41.6,35.1c2.3,1.8,3.1,3,3.1,4.8c0,1.1-0.4,2.4-1.8,3.3c-0.9,0.6-2,0.8-3,0.8c-1.1,0-1.9-0.1-2.7-0.5
			c-0.3-0.1-0.4-0.2-0.4-0.6c0-1,0.1-2.2,0.1-2.5c0-0.3,0.1-0.5,0.2-0.5c0.2,0,0.2,0.2,0.2,0.3c0,0.2,0.1,0.6,0.2,1
			c0.4,1.4,1.5,1.9,2.7,1.9c1.7,0,2.5-1.1,2.5-2.1c0-0.9-0.3-1.8-1.8-3L40,37.2c-2.1-1.6-2.8-2.9-2.8-4.5c0-2.1,1.7-3.6,4.3-3.6
			c1.2,0,2,0.2,2.5,0.3c0.2,0,0.3,0.1,0.3,0.2c0,0.2-0.1,0.8-0.1,2.3c0,0.4-0.1,0.6-0.2,0.6c-0.1,0-0.2-0.1-0.2-0.3
			c0-0.2-0.1-0.8-0.5-1.2c-0.3-0.4-0.8-0.9-2.1-0.9c-1.4,0-2.2,0.8-2.2,1.9c0,0.9,0.4,1.5,2,2.7L41.6,35.1z"/>
		<path class="st0" d="M49.1,37.7L49.1,37.7c0.5-0.5,2.6-2.6,3-3.1c0.4-0.5,0.7-0.8,0.7-1.1c0-0.2-0.1-0.3-0.2-0.3
			c-0.1,0-0.2-0.1-0.2-0.1c0-0.1,0.1-0.1,0.2-0.1c0.3,0,1.1,0,1.5,0c0.4,0,1.2,0,1.7,0c0.1,0,0.2,0,0.2,0.1s-0.1,0.1-0.2,0.1
			c-0.2,0-0.6,0.1-0.8,0.2c-0.4,0.2-0.9,0.5-1.5,1.1c-0.4,0.4-2.6,2.5-3,3c0.5,0.7,3.3,3.6,3.8,4.2c0.6,0.6,1.3,1.2,2,1.5
			c0.4,0.2,0.7,0.2,0.9,0.2c0.1,0,0.2,0,0.2,0.1c0,0.1-0.1,0.1-0.3,0.1h-1.2c-0.4,0-0.7,0-1,0c-0.8-0.1-1.1-0.4-1.8-0.9
			c-0.6-0.6-3.4-3.8-3.7-4.2l-0.2-0.2h-0.1v1.3c0,1.3,0,2.4,0,3c0,0.4,0.2,0.7,0.5,0.8c0.2,0,0.5,0.1,0.7,0.1c0.1,0,0.2,0,0.2,0.1
			c0,0.1-0.1,0.1-0.3,0.1c-0.8,0-1.7,0-2,0c-0.3,0-1.2,0-1.8,0c-0.2,0-0.3,0-0.3-0.1c0-0.1,0.1-0.1,0.2-0.1c0.2,0,0.4,0,0.5-0.1
			c0.3-0.1,0.4-0.4,0.4-0.8c0.1-0.6,0.1-1.7,0.1-3v-2.5c0-2.1,0-2.5,0-3c0-0.5-0.1-0.7-0.6-0.8c-0.1,0-0.4,0-0.5,0
			c-0.2,0-0.2,0-0.2-0.1s0.1-0.1,0.3-0.1c0.7,0,1.6,0,2,0c0.3,0,1.2,0,1.7,0c0.2,0,0.3,0,0.3,0.1s-0.1,0.1-0.2,0.1
			c-0.1,0-0.2,0-0.4,0c-0.4,0.1-0.5,0.3-0.5,0.8c0,0.5,0,0.8,0,3L49.1,37.7L49.1,37.7z"/>
		<path class="st0" d="M59.7,40c0-0.8-0.1-1.1-0.3-1.5c-0.1-0.2-2-3.3-2.5-4.1c-0.4-0.5-0.7-0.9-1-1c-0.2-0.1-0.4-0.2-0.6-0.2
			c-0.1,0-0.2,0-0.2-0.1c0-0.1,0.1-0.1,0.3-0.1c0.3,0,1.3,0,1.8,0c0.3,0,0.9,0,1.5,0c0.1,0,0.2,0,0.2,0.1c0,0.1-0.1,0.1-0.3,0.2
			c-0.1,0-0.2,0.1-0.2,0.3c0,0.1,0.1,0.3,0.2,0.5c0.2,0.4,2.2,3.8,2.4,4.2c0.1-0.3,1.9-3.4,2.1-3.9c0.1-0.3,0.2-0.5,0.2-0.7
			c0-0.1-0.1-0.3-0.3-0.4c-0.1,0-0.3-0.1-0.3-0.1c0-0.1,0.1-0.1,0.2-0.1c0.5,0,0.9,0,1.3,0c0.3,0,1.2,0,1.5,0c0.2,0,0.3,0,0.3,0.1
			c0,0.1-0.1,0.1-0.3,0.1c-0.1,0-0.4,0.1-0.6,0.2c-0.3,0.1-0.5,0.3-0.8,0.7c-0.5,0.6-2.4,3.9-2.7,4.5c-0.2,0.5-0.2,0.9-0.2,1.4v1.2
			c0,0.2,0,0.8,0,1.4c0,0.4,0.2,0.7,0.6,0.8c0.2,0,0.5,0.1,0.7,0.1c0.2,0,0.2,0,0.2,0.1c0,0.1-0.1,0.1-0.3,0.1c-0.9,0-1.8,0-2.2,0
			c-0.4,0-1.2,0-1.8,0c-0.2,0-0.3,0-0.3-0.1c0-0.1,0.1-0.1,0.2-0.1c0.2,0,0.4,0,0.5-0.1c0.3-0.1,0.4-0.4,0.4-0.8c0-0.6,0-1.2,0-1.4
			L59.7,40L59.7,40z"/>
		<path class="st0" d="M68.4,31.2c1.4-1.2,3.1-2,5.9-2c1.2,0,1.9,0.1,2.7,0.2c0.7,0.1,1.3,0.3,1.9,0.3c0.2,0,0.3,0.1,0.3,0.2
			c0,0.2-0.1,0.4-0.1,1c0,0.6,0,1.7-0.1,2c0,0.3-0.1,0.4-0.2,0.4c-0.2,0-0.2-0.2-0.2-0.4c0-0.6-0.3-1.2-0.7-1.7
			c-0.6-0.7-2.1-1.2-3.8-1.2c-1.6,0-2.7,0.4-3.5,1.2c-1.4,1.3-1.7,3-1.7,4.9c0,4.5,3.4,6.7,5.9,6.7c1.7,0,2.7-0.2,3.4-1.1
			c0.3-0.4,0.6-0.9,0.6-1.2c0.1-0.3,0.1-0.4,0.2-0.4c0.1,0,0.2,0.1,0.2,0.3c0,0.2-0.2,1.9-0.4,2.5c-0.1,0.3-0.2,0.4-0.5,0.5
			c-0.8,0.3-2.2,0.4-3.4,0.4c-2.6,0-4.7-0.6-6.5-2.1c-1.8-1.6-2.3-3.7-2.3-5.6C66.2,35.1,66.6,32.9,68.4,31.2z"/>
		<path class="st0" d="M81.6,37.1c0-2.1,0-2.5,0-3c0-0.5-0.2-0.7-0.5-0.8c-0.2,0-0.3-0.1-0.5-0.1c-0.1,0-0.2,0-0.2-0.1
			c0-0.1,0.1-0.1,0.3-0.1c0.5,0,1.4,0,1.8,0c0.4,0,1.2,0,1.7,0c0.2,0,0.3,0,0.3,0.1c0,0.1-0.1,0.1-0.2,0.1s-0.3,0-0.4,0
			c-0.4,0.1-0.5,0.3-0.5,0.8c0,0.5,0,0.8,0,3v2.5c0,1.4,0,2.5,0.1,3.1c0,0.4,0.1,0.6,0.6,0.7c0.2,0,0.5,0.1,0.7,0.1
			c0.2,0,0.2,0,0.2,0.1c0,0.1-0.1,0.1-0.3,0.1c-0.9,0-1.8,0-2.2,0c-0.3,0-1.2,0-1.8,0c-0.2,0-0.3,0-0.3-0.1c0-0.1,0.1-0.1,0.2-0.1
			c0.2,0,0.4,0,0.5-0.1c0.3-0.1,0.4-0.3,0.4-0.7c0.1-0.6,0.1-1.7,0.1-3.1L81.6,37.1L81.6,37.1z"/>
		<path class="st0" d="M89.7,33.8l-2.1,0.1c-0.8,0-1.2,0.1-1.4,0.4c-0.1,0.2-0.2,0.4-0.2,0.5c0,0.1-0.1,0.2-0.2,0.2
			c-0.1,0-0.1-0.1-0.1-0.2c0-0.2,0.3-1.5,0.3-1.6c0-0.2,0.1-0.3,0.2-0.3c0.1,0,0.3,0.1,0.6,0.2c0.4,0,0.9,0.1,1.4,0.1h5.6
			c0.9,0,1.2-0.1,1.4-0.1c0.1,0,0.1,0.1,0.1,0.3c0,0.3,0,1.3,0,1.6c0,0.1,0,0.2-0.1,0.2c-0.1,0-0.1-0.1-0.2-0.3l0-0.2
			c0-0.4-0.4-0.8-1.7-0.8l-1.8,0v5.8c0,1.3,0,2.4,0.1,3c0,0.4,0.1,0.7,0.6,0.8c0.2,0,0.5,0.1,0.7,0.1c0.2,0,0.2,0,0.2,0.1
			c0,0.1-0.1,0.1-0.3,0.1c-0.9,0-1.8,0-2.2,0c-0.3,0-1.2,0-1.8,0c-0.2,0-0.3,0-0.3-0.1c0-0.1,0.1-0.1,0.2-0.1c0.2,0,0.4,0,0.5-0.1
			c0.3-0.1,0.4-0.4,0.4-0.8c0.1-0.6,0.1-1.7,0.1-3L89.7,33.8L89.7,33.8z"/>
		<path class="st0" d="M99.3,40c0-0.8-0.1-1.1-0.3-1.5c-0.1-0.2-2-3.3-2.5-4.1c-0.4-0.5-0.7-0.9-1-1c-0.2-0.1-0.4-0.2-0.6-0.2
			c-0.1,0-0.2,0-0.2-0.1c0-0.1,0.1-0.1,0.3-0.1c0.3,0,1.3,0,1.8,0c0.3,0,0.9,0,1.5,0c0.1,0,0.2,0,0.2,0.1c0,0.1-0.1,0.1-0.3,0.2
			c-0.1,0-0.2,0.1-0.2,0.3c0,0.1,0.1,0.3,0.2,0.5c0.2,0.4,2.2,3.8,2.4,4.2c0.1-0.3,1.9-3.4,2.1-3.9c0.1-0.3,0.2-0.5,0.2-0.7
			c0-0.1-0.1-0.3-0.3-0.4c-0.1,0-0.3-0.1-0.3-0.1c0-0.1,0.1-0.1,0.2-0.1c0.5,0,0.9,0,1.3,0c0.3,0,1.2,0,1.5,0c0.2,0,0.3,0,0.3,0.1
			c0,0.1-0.1,0.1-0.3,0.1c-0.1,0-0.4,0.1-0.6,0.2c-0.3,0.1-0.5,0.3-0.8,0.7c-0.5,0.6-2.4,3.9-2.7,4.5c-0.2,0.5-0.2,0.9-0.2,1.4v1.2
			c0,0.2,0,0.8,0,1.4c0,0.4,0.2,0.7,0.6,0.8c0.2,0,0.5,0.1,0.7,0.1c0.2,0,0.2,0,0.2,0.1c0,0.1-0.1,0.1-0.3,0.1c-0.9,0-1.8,0-2.2,0
			c-0.4,0-1.2,0-1.8,0c-0.2,0-0.3,0-0.3-0.1c0-0.1,0.1-0.1,0.2-0.1c0.2,0,0.4,0,0.5-0.1c0.3-0.1,0.4-0.4,0.4-0.8c0-0.6,0-1.2,0-1.4
			L99.3,40L99.3,40z"/>
	</g>
	<path class="st1" d="M37.8,50.8l0.1-0.5c0.2,0.1,0.4,0.2,0.6,0.2c0.2,0,0.5-0.1,0.5-0.4c0-0.6-1.2-0.3-1.2-1.3c0-0.6,0.5-0.8,1-0.8
		c0.2,0,0.4,0,0.7,0.1l0,0.5c-0.2-0.1-0.4-0.1-0.6-0.1c-0.2,0-0.4,0.1-0.4,0.3c0,0.5,1.2,0.3,1.2,1.3c0,0.6-0.5,0.9-1,0.9
		C38.3,50.9,38,50.8,37.8,50.8z"/>
	<path class="st1" d="M45.1,50.8h-0.6v-1.2h-1.1v1.2h-0.6v-2.7h0.6v1.1h1.1v-1.1h0.6C45.1,48.1,45.1,50.8,45.1,50.8z"/>
	<path class="st1" d="M49.8,50.5c-0.5,0-0.8-0.5-0.8-1c0-0.5,0.2-1,0.8-1c0.5,0,0.8,0.6,0.8,1C50.6,49.9,50.4,50.5,49.8,50.5z
		 M49.8,48c-0.9,0-1.3,0.6-1.3,1.4c0,0.8,0.5,1.4,1.3,1.4c0.8,0,1.3-0.6,1.3-1.4C51.2,48.6,50.7,48,49.8,48z"/>
	<path class="st1" d="M55.1,49.8v1h-0.6v-2.7h0.8c0.3,0,0.5,0,0.7,0.2c0.2,0.2,0.3,0.4,0.3,0.7c0,0.6-0.5,0.9-1.1,0.9
		C55.2,49.8,55.1,49.8,55.1,49.8z M55.1,49.4h0.2c0.4,0,0.5-0.1,0.5-0.4c0-0.4-0.2-0.4-0.5-0.4c0,0-0.1,0-0.2,0V49.4z"/>
	<path class="st1" d="M60.5,49.8c0.6,0,1.1-0.3,1.1-0.9c0-0.3-0.1-0.5-0.3-0.7c-0.2-0.1-0.4-0.2-0.7-0.2h-0.8v2.7h0.6v-1
		C60.3,49.8,60.4,49.8,60.5,49.8z M60.2,48.5c0,0,0.1,0,0.2,0c0.3,0,0.5,0.1,0.5,0.4c0,0.4-0.2,0.4-0.5,0.4h-0.2V48.5z"/>
	<path class="st1" d="M65.4,50.8h-0.6v-2.7h0.6V50.8z"/>
	<path class="st1" d="M71.1,50.8h-0.7l-0.9-1.7c-0.1-0.2-0.2-0.3-0.2-0.5c0,0.2,0.1,0.5,0.1,0.7v1.4h-0.5v-2.7h0.7l0.9,1.7
		c0.1,0.2,0.1,0.3,0.2,0.5c0-0.2,0-0.5,0-0.7v-1.5h0.5L71.1,50.8L71.1,50.8z"/>
	<path class="st1" d="M76.9,49.2v1.5c-0.3,0.1-0.6,0.1-0.9,0.1c-0.9,0-1.5-0.4-1.5-1.4c0-0.9,0.7-1.4,1.6-1.4c0.3,0,0.5,0,0.7,0.1
		l0,0.5c-0.2-0.1-0.5-0.2-0.7-0.2c-0.6,0-1,0.3-1,0.9c0,0.6,0.3,1,0.9,1c0.1,0,0.2,0,0.4-0.1v-0.7h-0.6v-0.5
		C75.8,49.2,76.9,49.2,76.9,49.2z"/>
	<path class="st1" d="M85,48.5L85,48.5c0,0.2,0,0.5,0,0.7v1.6h-0.5v-2.7h0.9l0.5,1.4c0.1,0.2,0.1,0.4,0.2,0.7
		c0.1-0.3,0.1-0.5,0.2-0.7l0.5-1.4h0.9v2.7h-0.5v-1.6c0-0.2,0-0.5,0-0.7h0c-0.1,0.2-0.1,0.4-0.2,0.6l-0.6,1.7h-0.5l-0.6-1.7
		C85.1,48.9,85,48.7,85,48.5z"/>
	<path class="st1" d="M91.7,49.8l0.3-0.9c0-0.1,0-0.1,0.1-0.2c0,0.1,0,0.1,0.1,0.2l0.4,1H91.7z M92.4,48.1h-0.6l-1,2.7h0.6l0.2-0.6
		h1.1l0.2,0.6h0.6L92.4,48.1z"/>
	<path class="st1" d="M98.3,50.4v0.5h-1.6v-2.7h0.6v2.3C97.3,50.4,98.3,50.4,98.3,50.4z"/>
	<path class="st1" d="M103.2,50.4v0.5h-1.6v-2.7h0.6v2.3C102.1,50.4,103.2,50.4,103.2,50.4z"/>
</g>
</svg>
